<svg width="20" height="20" viewBox="0 0 20 20" fill="none" xmlns="http://www.w3.org/2000/svg">
<path fill-rule="evenodd" clip-rule="evenodd" d="M4.27141 2.64336C3.35969 2.64336 2.61795 3.38413 2.61795 4.29466C2.61795 5.20579 3.35969 5.94704 4.27141 5.94704C5.18135 5.94704 5.92163 5.20579 5.92163 4.29466C5.92163 3.38413 5.18135 2.64336 4.27141 2.64336ZM2.84361 7.19855V16.3612H5.6937L5.69478 7.19855H2.84361ZM7.48209 7.19771V16.3603L10.3257 16.3614L10.3268 11.8276C10.3268 10.6639 10.5295 9.47431 12.0331 9.47431C13.5139 9.47431 13.5139 10.8781 13.5139 11.9032V16.3603L16.3607 16.3592V11.3351C16.3607 9.06782 15.9468 6.96979 12.9447 6.96979C11.5347 6.96979 10.6119 7.7668 10.2501 8.4494H10.2101L10.2102 7.19771H7.48209ZM17.7788 19.2H1.41586C0.635155 19.2 0 18.5784 0 17.8144V1.38454C0 0.621101 0.635155 0 1.41586 0H17.7788C18.5625 0 19.2 0.621101 19.2 1.38454V17.8144C19.2 18.5784 18.5625 19.2 17.7788 19.2Z" fill="white"/>
</svg>
