<?xml version="1.0" encoding="UTF-8"?>
<svg xmlns="http://www.w3.org/2000/svg" width="188" height="80" viewBox="0 0 188 80" fill="none" style="background: transparent;">
<path d="M-77 0.5C-3.83929 0.5 62.3846 4.97615 110.309 12.21C134.274 15.8275 153.642 20.1318 167.007 24.9014C173.692 27.2872 178.846 29.779 182.319 32.3408C185.806 34.9124 187.5 37.4787 187.5 40C187.5 42.5213 185.806 45.0876 182.319 47.6592C178.846 50.221 173.692 52.7128 167.007 55.0986C153.642 59.8682 134.274 64.1725 110.309 67.79C62.3846 75.0238 -3.83929 79.5 -77 79.5C-150.161 79.5 -216.385 75.0238 -264.309 67.79C-288.274 64.1725 -307.642 59.8682 -321.007 55.0986C-327.692 52.7128 -332.846 50.221 -336.319 47.6592C-339.806 45.0876 -341.5 42.5213 -341.5 40C-341.5 37.4787 -339.806 34.9124 -336.319 32.3408C-332.846 29.779 -327.692 27.2872 -321.007 24.9014C-307.642 20.1318 -288.274 15.8275 -264.309 12.21C-216.385 4.97615 -150.161 0.5 -77 0.5Z" stroke="white"/>
</svg>