<svg width="20" height="18" viewBox="0 0 20 18" fill="none" xmlns="http://www.w3.org/2000/svg">
<path fill-rule="evenodd" clip-rule="evenodd" d="M9.98169 9.48008e-05C9.82442 0.0031067 9.67465 0.0676855 9.56451 0.179963C9.45438 0.29224 9.39271 0.443238 9.39274 0.600507V12.0132C9.39274 12.1725 9.456 12.3252 9.56859 12.4378C9.68119 12.5504 9.83391 12.6136 9.99311 12.6136C10.1524 12.6136 10.3051 12.5504 10.4177 12.4378C10.5303 12.3252 10.5935 12.1725 10.5935 12.0132V0.600507C10.5936 0.52076 10.5777 0.441801 10.5469 0.368256C10.5161 0.2947 10.4709 0.228035 10.414 0.172137C10.3571 0.11624 10.2896 0.0722427 10.2156 0.0427044C10.1414 0.0131661 10.0622 -0.00132257 9.98248 9.48008e-05H9.98169ZM19.0666 3.41884C18.9882 3.42111 18.911 3.43865 18.8393 3.47052L13.6866 5.77045C13.5812 5.81808 13.4918 5.8951 13.429 5.99229C13.3663 6.08947 13.333 6.2027 13.333 6.31837C13.333 6.43404 13.3663 6.54726 13.429 6.64445C13.4918 6.74164 13.5812 6.81866 13.6866 6.86629L18.8393 9.17357C18.9168 9.20842 19.0006 9.22663 19.0854 9.22692C19.2227 9.22653 19.3557 9.17899 19.4622 9.09247C19.5688 9.00585 19.6424 8.88538 19.6709 8.75111C19.6994 8.61683 19.681 8.47684 19.6188 8.35446C19.5566 8.23209 19.4543 8.13472 19.329 8.07859L15.4034 6.31919L19.329 4.56635C19.474 4.50109 19.5872 4.38115 19.6441 4.23272C19.701 4.08428 19.6969 3.91939 19.6326 3.774C19.5839 3.66552 19.5041 3.5739 19.4033 3.5107C19.3026 3.44749 19.1854 3.41552 19.0666 3.41884ZM0.343419 7.60394C0.427073 7.56432 0.518755 7.54458 0.611301 7.54626V7.54708C0.742111 7.54963 0.868507 7.59485 0.971261 7.67583C1.07402 7.75682 1.14751 7.86915 1.18055 7.99575C1.80897 10.403 3.21819 12.5338 5.18742 14.0543C7.15666 15.5749 9.57465 16.3992 12.0626 16.3982C12.2218 16.3982 12.3746 16.4615 12.4872 16.5741C12.5998 16.6867 12.663 16.8395 12.663 16.9986C12.663 17.1579 12.5998 17.3106 12.4872 17.4232C12.3746 17.5358 12.2218 17.599 12.0626 17.599C6.39642 17.599 1.44302 13.7735 0.0190911 8.29678C-0.00406453 8.20716 -0.00618639 8.11339 0.0128913 8.02282C0.0319689 7.93225 0.0717295 7.84731 0.129067 7.77464C0.186404 7.70198 0.259765 7.64356 0.343419 7.60394Z" fill="white"/>
</svg>
