<svg width="19" height="16" viewBox="0 0 19 16" fill="none" xmlns="http://www.w3.org/2000/svg">
<path d="M18.6243 1.79592C17.9394 2.0994 17.2037 2.30447 16.4301 2.39715C17.2283 1.91961 17.8253 1.168 18.11 0.282586C17.3602 0.727964 16.5395 1.04147 15.6837 1.20946C15.1082 0.594988 14.346 0.187702 13.5153 0.0508471C12.6846 -0.0860075 11.8319 0.0552074 11.0898 0.452582C10.3475 0.849956 9.75736 1.48125 9.4107 2.24844C9.06403 3.01564 8.98037 3.87583 9.1727 4.69545C7.65335 4.61917 6.16705 4.22426 4.8102 3.53638C3.45337 2.84849 2.25634 1.883 1.29679 0.70255C0.968698 1.26851 0.780041 1.92469 0.780041 2.62353C0.779676 3.25266 0.934602 3.87214 1.23107 4.42701C1.52754 4.98189 1.9564 5.45502 2.47957 5.80441C1.87282 5.7851 1.27947 5.62116 0.748878 5.32622V5.37543C0.748809 6.25779 1.05403 7.11299 1.61273 7.79596C2.17143 8.47885 2.94921 8.94747 3.81409 9.12228C3.25124 9.27454 2.66112 9.29699 2.08832 9.18783C2.33233 9.9471 2.80766 10.611 3.44775 11.0867C4.08784 11.5623 4.86065 11.8259 5.65799 11.8405C4.30446 12.9031 2.63286 13.4794 0.912102 13.4768C0.607289 13.4769 0.302733 13.4591 0 13.4236C1.74667 14.5467 3.77993 15.1426 5.85648 15.1403C12.8859 15.1403 16.7287 9.31825 16.7287 4.26893C16.7287 4.10488 16.7246 3.93919 16.7172 3.77514C17.4647 3.23459 18.1099 2.56522 18.6226 1.79838L18.6243 1.79592Z" fill="white"/>
</svg>
